<svg width="20" height="20" viewBox="0 0 44 40" fill="none"
    xmlns="http://www.w3.org/2000/svg">
    <path fill-rule="evenodd" clip-rule="evenodd" d="M39.8 18.9283C41.4205 18.1304 42.7491 16.6923 43.4 15C44 13.4 43.8 11.6 43 10.2L39.6 3.40002C38.6 1.60002 36.6 0.400024 34.6 0.400024H9.6C7.4 0.400024 5.6 1.60002 4.6 3.40002L1.2 10.2C0.400002 11.8 0.200002 13.4 1 15.2C1.51978 16.8893 2.79939 18.2409 4.40002 18.9804V36.4H4.00002C3.00002 36.4 2.40002 37 2.40002 38C2.40002 39 3.20002 39.6 4.00002 39.6H40C40.8 39.6 41.6 39 41.6 38C41.6 37 40.8 36.4 40 36.4H39.8V18.9283ZM7.60002 26.4V19.5838C9.26355 19.4496 10.889 18.4963 12 17.2C13.2 18.6 15 19.6 17 19.6C19 19.6 20.8 18.6 22 17.2C22.6466 17.9544 23.4675 18.5927 24.4 19.0209V26.4H7.60002ZM7.60002 29.6V36.4H24.4V29.6H7.60002ZM27.6 36.4H36.6V19.5867C34.761 19.4639 33.1194 18.506 32 17.2C30.9213 18.4585 29.3578 19.3937 27.6 19.57V36.4ZM38.0905 16.2033C39.0813 15.8461 39.9579 15.0317 40.4 14C40.6 13.2 40.6 12.2 40.2 11.6L36.8 4.80002C36.4 4.00002 35.6 3.40002 34.6 3.40002H9.6C8.6 3.60002 7.8 4.00002 7.4 4.80002L3.8 11.6C3.4 12.4 3.4 13.4 3.6 14.2C3.89654 15.2379 4.74268 16.056 5.81247 16.4097C5.8733 16.4033 5.93584 16.4 6.00002 16.4C6.33789 16.4 6.63009 16.4685 6.86892 16.5978C6.91245 16.5993 6.95615 16.6 7 16.6C8.6 16.6 9.8 15.6 10.2 14C10.4 13.2 11.2 12.6 12 12.6C12.8 12.6 13.4 13.2 13.6 14C14 15.6 15.4 16.6 17 16.6C18.6 16.6 20 15.6 20.4 14C20.6 13.2 21.4 12.6 22.2 12.6C23 12.6 23.6 13.2 24 13.8C24.2978 14.9912 25.1498 15.8498 26.226 16.2108C26.4243 16.2303 26.604 16.276 26.7631 16.346C26.9704 16.3817 27.1834 16.4 27.4 16.4C29 16.4 30 15.4 30.4 14C30.6 13.2 31.2 12.6 32 12.6C32.8 12.6 33.4 13.2 33.8 13.8C34.2 15.2 35.6 16.4 37 16.4C37.1587 16.4 37.3175 16.3872 37.475 16.3623C37.6558 16.2735 37.8618 16.217 38.0905 16.2033Z" fill="#484848"/>
</svg>
