<svg width="93" height="39" viewBox="0 0 93 39" fill="none"
    xmlns="http://www.w3.org/2000/svg">
    <path fill-rule="evenodd" clip-rule="evenodd" d="M9.67429 39H81.0192C88.2497 39 92.1818 35.3228 92.1818 28.168V12.5661C92.1818 4.5941 89.3395 0 80.1454 0H0V29.4555C0.0076252 31.9895 1.03024 34.4171 2.8437 36.2062C4.65715 37.9953 7.11349 39 9.67429 39ZM60.5566 9.34034C59.913 9.34124 59.2706 9.39527 58.6361 9.50187L58.6217 28.8617C58.9988 28.9979 59.3835 29.1121 59.774 29.2038C60.1965 29.3036 60.6334 29.3843 61.0895 29.4461C61.3338 29.4792 61.5752 29.5027 61.8162 29.5262C62.0252 29.5465 62.2338 29.5669 62.4434 29.5934C62.8948 29.6504 63.3173 29.6504 63.7206 29.6504C64.8746 29.668 66.0229 29.4879 67.1149 29.1183C68.062 28.8009 68.9308 28.2893 69.6644 27.617C70.3677 26.9534 70.9109 26.1415 71.2535 25.2416C71.6328 24.2329 71.8184 23.163 71.8009 22.087C71.823 21.0224 71.6755 19.961 71.364 18.9419C71.1144 18.1336 70.7048 17.3827 70.1589 16.7327C69.6651 16.1568 69.0396 15.7056 68.3344 15.4167C67.6094 15.1232 66.8324 14.9762 66.0491 14.9844C65.2904 14.9719 64.5391 15.1346 63.855 15.4595C63.2916 15.7183 62.8199 16.1387 62.5011 16.6662V9.50187C61.8586 9.39466 61.2082 9.34063 60.5566 9.34034ZM63.202 26.4198C62.9636 26.4019 62.7283 26.3556 62.5011 26.282L62.4915 21.1938C62.4915 20.1676 62.7123 19.4075 63.1924 18.9324C63.4233 18.6951 63.7021 18.5087 64.0107 18.3851C64.3192 18.2615 64.6506 18.2035 64.9832 18.215C65.3991 18.1765 65.8177 18.2508 66.1941 18.4299C66.5705 18.609 66.8905 18.8862 67.1198 19.2317C67.5974 20.1452 67.8164 21.1696 67.7535 22.1962C67.7535 23.6643 67.4126 24.738 66.7357 25.4268C66.365 25.7723 65.9266 26.0387 65.4475 26.2095C64.9685 26.3803 64.4591 26.4519 63.951 26.4198H63.202ZM33.8321 24.819C33.633 24.4069 33.5332 23.9547 33.5405 23.4979L42.7107 23.5074C42.7331 23.3934 42.7474 23.2534 42.764 23.0903C42.7758 22.9746 42.7887 22.8472 42.8067 22.7092C42.8499 22.3767 42.8499 22.0346 42.8499 21.6925C42.8559 20.7959 42.7165 19.904 42.437 19.0511C42.1843 18.2655 41.769 17.5406 41.2175 16.9227C40.675 16.3144 40.0071 15.8284 39.2586 15.4974C38.4287 15.1426 37.5316 14.9677 36.6276 14.9843C35.6063 14.9628 34.5924 15.1606 33.6557 15.5639C32.8348 15.9318 32.1055 16.4735 31.5192 17.1507C30.9285 17.8479 30.486 18.6558 30.2181 19.5261C29.9206 20.4637 29.7732 21.4415 29.7812 22.4242C29.7708 23.4075 29.9132 24.3865 30.2037 25.327C30.4619 26.1971 30.9238 26.9948 31.552 27.6552C32.1801 28.3155 32.9568 28.82 33.819 29.1277C34.8964 29.5099 36.0354 29.6934 37.1797 29.6693C38.817 29.6924 40.4445 29.417 41.9809 28.8569C41.9707 28.3055 41.8884 27.7578 41.736 27.2273C41.6136 26.7754 41.4396 26.3387 41.2175 25.9256C40.6177 26.1474 39.9991 26.3159 39.3691 26.4292C38.7357 26.5461 38.0929 26.6049 37.4486 26.605C36.4734 26.6554 35.5071 26.3993 34.688 25.8733C34.3242 25.5921 34.0312 25.2312 33.8321 24.819ZM38.3752 18.7137C38.8453 19.3149 39.1003 20.0535 39.1002 20.8136H33.5549C33.5904 20.0274 33.8894 19.2752 34.4047 18.6757C34.6778 18.4102 35.0048 18.2052 35.364 18.0741C35.7232 17.9431 36.1065 17.889 36.4884 17.9156C36.8438 17.8957 37.199 17.9574 37.5263 18.0959C37.8536 18.2344 38.1442 18.4458 38.3752 18.7137ZM15.4591 20.1104C15.475 19.7462 15.3991 19.3837 15.2383 19.0557C15.1004 18.7923 14.893 18.5706 14.6382 18.4144C14.3423 18.2485 14.0157 18.1435 13.6779 18.1055C13.2645 18.0476 12.8472 18.0206 12.4296 18.0248C11.3551 18.0406 10.2907 18.2332 9.28008 18.5949C9.04521 18.1709 8.85227 17.7254 8.70395 17.2646C8.56824 16.779 8.50357 16.2766 8.5119 15.7729C9.29327 15.5067 10.0965 15.308 10.9125 15.179C11.6535 15.0566 12.4033 14.9931 13.1546 14.989C15.0559 14.989 16.541 15.4403 17.6101 16.343C18.6791 17.2456 19.212 18.6915 19.2088 20.6805V28.814C18.4436 29.0453 17.6662 29.2356 16.8803 29.3841C15.8611 29.5743 14.8255 29.665 13.7884 29.6549C12.9273 29.6627 12.0679 29.5799 11.2245 29.4079C10.5106 29.2719 9.83147 28.9957 9.22727 28.5955C8.67695 28.2255 8.23217 27.7216 7.93577 27.1322C7.61735 26.4445 7.46294 25.6935 7.48446 24.9373C7.45739 24.1708 7.65229 23.4125 8.04619 22.7519C8.40466 22.17 8.8985 21.6814 9.48653 21.3266C10.1173 20.9662 10.8058 20.7155 11.5222 20.5855C12.2435 20.433 12.9788 20.3549 13.7163 20.3527C14.2445 20.3527 14.8302 20.3812 15.4687 20.4382L15.4591 20.1104ZM15.4591 22.9039C15.2819 22.8734 15.0799 22.849 14.8879 22.8259L14.7486 22.8089C14.5207 22.7822 14.2915 22.7679 14.062 22.7662C13.3242 22.7306 12.5905 22.8949 11.9399 23.2412C11.6802 23.4018 11.4699 23.6298 11.332 23.9003C11.194 24.1709 11.1336 24.4737 11.1573 24.7758C11.1327 25.1602 11.2392 25.5416 11.4598 25.859C11.6497 26.1023 11.8992 26.2937 12.1848 26.4148C12.472 26.5339 12.7768 26.6061 13.0874 26.6286C13.4091 26.6571 13.6875 26.6714 13.9276 26.6714C14.2026 26.6704 14.4771 26.6482 14.7486 26.6049L15.4591 26.4814V22.9039ZM20.7023 15.3122C20.976 15.2599 21.2352 15.2172 21.4849 15.1887C21.7346 15.1602 21.9986 15.1507 22.2915 15.1507C22.5612 15.1512 22.8306 15.1686 23.0981 15.2029C23.367 15.2409 23.6262 15.2837 23.8807 15.3407C23.9488 15.4646 23.9989 15.5973 24.0295 15.735C24.0775 15.906 24.1159 16.0866 24.1543 16.2766C24.19 16.4531 24.2174 16.6295 24.2442 16.8022L24.2442 16.8023L24.2504 16.842C24.2662 16.944 24.2792 17.0402 24.2908 17.1267C24.3003 17.1974 24.3089 17.2615 24.3176 17.3171C24.7322 16.7465 25.2306 16.2405 25.7963 15.8158C26.4319 15.3574 27.2045 15.1232 27.9904 15.1507C28.1729 15.1507 28.3841 15.1507 28.6194 15.1792C28.7966 15.1839 28.9725 15.2111 29.1427 15.2599C29.1804 15.4659 29.2076 15.6736 29.2243 15.8823C29.2243 15.9959 29.2301 16.1117 29.2359 16.2303C29.2421 16.3549 29.2483 16.4825 29.2483 16.6139C29.2483 16.8705 29.2483 17.2553 29.2099 17.6164C29.1839 17.9629 29.1342 18.3074 29.0611 18.6473C28.8392 18.6093 28.6141 18.5918 28.3889 18.595H27.9376C27.5882 18.5968 27.2396 18.6286 26.8958 18.6901C26.4946 18.7538 26.1163 18.9173 25.7963 19.1652C25.4032 19.5048 25.1069 19.9406 24.9369 20.4289C24.6756 21.1586 24.5582 21.9311 24.5912 22.7046V29.3558C24.2732 29.4078 23.9527 29.4443 23.631 29.4651C23.4629 29.4651 23.2985 29.4724 23.1366 29.4796L23.1366 29.4796L23.1364 29.4796C22.9793 29.4867 22.8244 29.4936 22.6708 29.4936C22.3587 29.4936 22.0466 29.4936 21.7106 29.4651C21.3745 29.4366 21.0576 29.4081 20.7119 29.3558L20.7023 15.3122ZM47.9298 23.4979C47.9224 23.9552 48.0226 24.4079 48.2226 24.8202C48.4226 25.2325 48.7169 25.5931 49.0821 25.8733C49.8939 26.3959 50.8515 26.6519 51.8188 26.6049C52.463 26.6049 53.1059 26.5461 53.7392 26.4292C54.3692 26.3159 54.9878 26.1474 55.5876 25.9256C55.8098 26.3386 55.9837 26.7754 56.1062 27.2273C56.2578 27.7581 56.3417 28.3055 56.3558 28.8569C54.8192 29.416 53.1918 29.6914 51.5547 29.6693C50.4104 29.6941 49.2712 29.5105 48.1939 29.1277C47.3183 28.8088 46.5295 28.2933 45.8894 27.6216C45.2873 26.9624 44.8383 26.1808 44.5738 25.3317C44.2834 24.3913 44.1409 23.4122 44.1513 22.4289C44.1433 21.4463 44.2908 20.4684 44.5882 19.5309C44.8561 18.6606 45.2987 17.8526 45.8894 17.1554C46.4757 16.4782 47.205 15.9366 48.0259 15.5687C48.9627 15.1659 49.9765 14.9682 50.9978 14.989C51.9017 14.9724 52.7988 15.1474 53.6288 15.5021C54.3772 15.8332 55.0452 16.3192 55.5876 16.9274C56.1391 17.5453 56.5545 18.2702 56.8071 19.0558C57.0866 19.9088 57.226 20.8006 57.22 21.6973C57.22 22.0393 57.22 22.3814 57.1768 22.714C57.1604 22.9816 57.1283 23.2481 57.0808 23.5121L47.9298 23.4979ZM53.4896 20.8136C53.4897 20.0535 53.2347 19.3149 52.7646 18.7137C52.535 18.4478 52.2468 18.2375 51.9222 18.0991C51.5976 17.9607 51.2452 17.898 50.8921 17.9156C50.5102 17.889 50.127 17.9431 49.7678 18.0741C49.4085 18.2052 49.0816 18.4102 48.8084 18.6757C48.295 19.2763 47.9963 20.0278 47.9586 20.8136H53.4896ZM80.8895 20.1104C80.9043 19.7468 80.8301 19.385 80.6734 19.0557C80.5323 18.793 80.3236 18.5718 80.0685 18.4144C79.773 18.2478 79.4462 18.1427 79.1082 18.1055C78.6964 18.0476 78.2807 18.0206 77.8647 18.0248C76.7886 18.0401 75.7225 18.2328 74.7104 18.5949C74.4749 18.1718 74.2834 17.7261 74.1391 17.2646C74.001 16.7795 73.9363 16.2768 73.947 15.7729C75.4475 15.2688 77.0196 15.0042 78.6041 14.989C80.499 14.989 81.9825 15.4403 83.0548 16.343C84.127 17.2456 84.6616 18.6915 84.6584 20.6805V28.814C83.8929 29.0447 83.1156 29.235 82.3298 29.3841C81.309 29.5742 80.2718 29.6649 79.2331 29.6549C78.372 29.6627 77.5126 29.5799 76.6693 29.4079C75.9556 29.271 75.2766 28.9949 74.672 28.5955C74.1224 28.2261 73.6791 27.7219 73.3853 27.1322C73.0647 26.4452 72.9102 25.6937 72.934 24.9373C72.9069 24.1708 73.1018 23.4125 73.4957 22.7519C73.8528 22.169 74.347 21.68 74.936 21.3266C75.551 20.965 76.2229 20.7081 76.9237 20.5665C77.6434 20.414 78.3771 20.336 79.113 20.3337C79.6412 20.3337 80.2269 20.3622 80.8654 20.4192L80.8895 20.1104ZM80.8895 22.9039C80.6734 22.8659 80.4333 22.8374 80.1789 22.8089C79.951 22.7821 79.7218 22.7678 79.4923 22.7662C78.7545 22.7311 78.0209 22.8953 77.3702 23.2412C77.1122 23.4032 76.9035 23.6316 76.7664 23.9019C76.6294 24.1722 76.5693 24.4743 76.5924 24.7758C76.5664 25.1596 76.6712 25.541 76.8901 25.859C77.08 26.1023 77.3295 26.2937 77.6151 26.4148C77.9036 26.5349 78.2102 26.6071 78.5225 26.6286C78.8426 26.6571 79.121 26.6714 79.3579 26.6714C79.6329 26.6704 79.9074 26.6482 80.1789 26.6049L80.8895 26.4814V22.9039Z" fill="#FF4238"/>
</svg>
