<svg width="8" height="10" viewBox="0 0 8 10" fill="none"
    xmlns="http://www.w3.org/2000/svg">
    <path d="M4.75431 1.08748L6.17915 2.51232C6.75032 3.08349 7.0359 3.36907 7.0552 3.61426C7.07194 3.82701 6.98583 4.03491 6.82356 4.1735C6.63654 4.33323 6.23266 4.33323 5.4249 4.33323H2.57523C1.76747 4.33323 1.36359 4.33323 1.17658 4.1735C1.0143 4.03491 0.928186 3.82701 0.94493 3.61426C0.964226 3.36907 1.24981 3.08349 1.82098 2.51232L3.24582 1.08748C3.50983 0.823469 3.64184 0.691463 3.79405 0.642004C3.92795 0.598499 4.07218 0.598499 4.20608 0.642004C4.3583 0.691463 4.4903 0.823469 4.75431 1.08748Z" fill="#484848"/>
    <path d="M4.75431 8.91226L6.17915 7.48742C6.75032 6.91625 7.0359 6.63066 7.0552 6.38548C7.07194 6.17273 6.98583 5.96483 6.82355 5.82623C6.63654 5.6665 6.23266 5.6665 5.4249 5.6665H2.57523C1.76747 5.6665 1.36359 5.6665 1.17658 5.82623C1.0143 5.96483 0.928186 6.17273 0.94493 6.38548C0.964226 6.63066 1.24981 6.91625 1.82098 7.48742L3.24582 8.91226C3.50983 9.17627 3.64184 9.30827 3.79405 9.35773C3.92795 9.40124 4.07218 9.40124 4.20608 9.35773C4.3583 9.30827 4.4903 9.17627 4.75431 8.91226Z" fill="#484848"/>
</svg>
