<svg width="38" height="40" viewBox="0 0 38 40" fill="#9a9a9a"
    xmlns="http://www.w3.org/2000/svg">
    <path d="M8.99985 13.5999C9.79985 13.5999 10.5999 12.9999 10.5999 11.9999V1.9999C10.5999 1.1999 9.99985 0.399902 8.99985 0.399902C7.99985 0.399902 7.59985 1.1999 7.59985 1.9999V11.9999C7.59985 12.7999 8.19985 13.5999 8.99985 13.5999Z" fill="#9a9a9a"/>
    <path d="M15.9999 0.600098C15.1999 0.600098 14.3999 1.2001 14.3999 2.2001V11.2001C14.3999 13.2001 13.5999 15.2001 12.1999 16.4001C10.9999 17.4001 10.3999 18.8001 10.3999 20.2001V35.0001C10.3999 35.8001 9.7999 36.6001 8.7999 36.6001C7.7999 36.6001 7.1999 36.0001 7.1999 35.0001V20.2001C7.1999 18.8001 6.5999 17.4001 5.3999 16.4001C4.1999 15.0001 3.5999 13.2001 3.5999 11.0001V2.2001C3.5999 1.4001 2.9999 0.600098 1.9999 0.600098C0.999902 0.600098 0.399902 1.4001 0.399902 2.2001V11.6001C0.399902 14.4001 1.5999 17.0001 3.5999 18.6001C3.9999 18.8001 4.3999 19.4001 4.3999 20.2001V35.0001C4.3999 37.4001 6.3999 39.4001 8.7999 39.4001C11.1999 39.4001 13.1999 37.4001 13.1999 35.0001V20.2001C13.1999 19.4001 13.7999 18.8001 13.9999 18.6001C15.9999 16.8001 17.1999 14.0001 17.1999 11.2001V2.2001C17.5999 1.4001 16.7999 0.600098 15.9999 0.600098Z" fill="#9a9a9a"/>
    <path fill-rule="evenodd" clip-rule="evenodd" d="M31.9999 0.600098H33.9999C35.9999 0.600098 37.5999 2.2001 37.1999 4.2001V35.0001C37.1999 37.4001 35.1999 39.4001 32.7999 39.4001C30.3999 39.4001 28.3999 37.4001 28.3999 35.0001V26.8001C25.9999 25.6001 24.3999 23.0001 24.3999 20.2001V8.2001C24.3999 4.0001 27.7999 0.600098 31.9999 0.600098ZM32.7999 36.6001C33.7999 36.6001 34.3999 35.8001 34.3999 35.0001H33.9999V4.2001C33.9999 4.0001 33.7999 3.8001 33.5999 3.8001H31.5999C29.1999 3.8001 27.1999 5.8001 27.1999 8.2001V20.2001C27.1999 22.0001 28.3999 23.8001 30.1999 24.4001C30.7999 24.6001 31.1999 25.2001 31.1999 25.8001V35.0001C31.1999 36.0001 31.7999 36.6001 32.7999 36.6001Z" fill="#9a9a9a"/>
</svg>
