<svg width="46" height="40" viewBox="0 0 46 40" fill="none"
    xmlns="http://www.w3.org/2000/svg">
    <path fill-rule="evenodd" clip-rule="evenodd" d="M4.5 6C4.5 2.96243 6.96243 0.5 10 0.5H36C39.0376 0.5 41.5 2.96243 41.5 6V23.6459L42.0779 24.8018C42.0878 24.8205 42.0973 24.8395 42.1064 24.8586L44.9194 30.4847C45.3012 31.2483 45.4999 32.0903 45.5 32.944V34.9947C45.5001 37.4739 43.4951 39.4863 41.0159 39.495L39.6052 39.5L39.5999 39.5H6.38957L4.9685 39.49C2.49553 39.4727 0.499939 37.463 0.5 34.99V32.9441C0.500093 32.0904 0.698913 31.2483 1.08072 30.4847L3.8918 24.8625C3.90205 24.8407 3.91282 24.8192 3.92408 24.798L4.50012 23.6459L4.5 6ZM38.5 6V24L7.50012 24L7.5 6C7.50001 4.61929 8.61929 3.5 10 3.5H36C37.3807 3.5 38.5 4.61929 38.5 6ZM3.764 31.8263L6.17717 27H39.8229L42.2361 31.8264C42.4096 32.1734 42.5 32.5562 42.5 32.9442V34.9949C42.5001 35.8213 41.8317 36.4921 41.0053 36.495L39.5999 36.5H6.40012L4.98955 36.49C4.16518 36.4843 3.49998 35.8144 3.5 34.99V32.9441C3.50007 32.5561 3.59047 32.1734 3.764 31.8263ZM18.4415 30.5C17.6131 30.5 16.9415 31.1716 16.9415 32C16.9415 32.8284 17.6131 33.5 18.4415 33.5H27.5585C28.3869 33.5 29.0585 32.8284 29.0585 32C29.0585 31.1716 28.3869 30.5 27.5585 30.5H18.4415Z" fill="#9a9a9a"/>
</svg>
