<svg width="16" height="20" viewBox="0 0 16 20" fill="none"
    xmlns="http://www.w3.org/2000/svg">
    <path d="M7.52361 19.5793C7.52361 19.5793 7.52395 19.5795 8 19L8.47606 19.5795C8.19937 19.8068 7.80029 19.8065 7.52361 19.5793Z" fill="#484848"/>
    <path fill-rule="evenodd" clip-rule="evenodd" d="M8 4.25C5.92879 4.25 4.25 5.92879 4.25 8C4.25 10.0712 5.92879 11.75 8 11.75C10.0712 11.75 11.75 10.0712 11.75 8C11.75 5.92879 10.0712 4.25 8 4.25ZM5.75 8C5.75 6.75721 6.75721 5.75 8 5.75C9.24279 5.75 10.25 6.75721 10.25 8C10.25 9.24279 9.24279 10.25 8 10.25C6.75721 10.25 5.75 9.24279 5.75 8Z" fill="#484848"/>
    <path fill-rule="evenodd" clip-rule="evenodd" d="M7.52361 19.5793L8 19C8.47606 19.5795 8.47688 19.5789 8.47688 19.5789L8.47835 19.5777L8.48318 19.5737L8.50028 19.5595C8.51494 19.5472 8.53605 19.5296 8.56316 19.5066C8.61739 19.4607 8.6957 19.3937 8.79466 19.3071C8.99252 19.134 9.27326 18.8823 9.60929 18.5643C10.2804 17.9291 11.1769 17.0248 12.0755 15.9497C13.8371 13.842 15.75 10.9116 15.75 8C15.75 3.71979 12.2802 0.25 8 0.25C3.71979 0.25 0.25 3.71979 0.25 8C0.25 10.9116 2.16287 13.842 3.92454 15.9497C4.82313 17.0248 5.71961 17.9291 6.39071 18.5643C6.72674 18.8823 7.00748 19.134 7.20534 19.3071C7.3043 19.3937 7.38261 19.4607 7.43684 19.5066C7.46395 19.5296 7.48506 19.5472 7.49972 19.5595L7.51682 19.5737L7.52165 19.5777L7.52361 19.5793ZM1.75 8C1.75 4.54821 4.54821 1.75 8 1.75C11.4518 1.75 14.25 4.54821 14.25 8C14.25 10.3384 12.6629 12.908 10.9245 14.9878C10.0731 16.0064 9.21961 16.8678 8.57821 17.4748C8.35657 17.6846 8.16084 17.8634 8 18.0073C7.83916 17.8634 7.64343 17.6846 7.42179 17.4748C6.78039 16.8678 5.92687 16.0064 5.07546 14.9878C3.33713 12.908 1.75 10.3384 1.75 8Z" fill="#484848"/>
</svg>
