<svg width="18" height="18" viewBox="0 0 18 18" fill="none"
    xmlns="http://www.w3.org/2000/svg">
    <path fill-rule="evenodd" clip-rule="evenodd" d="M13.0267 14.0875C11.6765 15.2014 9.94564 15.8706 8.05852 15.8706C3.74411 15.8706 0.246582 12.373 0.246582 8.05861C0.246582 3.7442 3.74411 0.246674 8.05852 0.246674C12.3729 0.246674 15.8705 3.7442 15.8705 8.05861C15.8705 9.94574 15.2013 11.6766 14.0874 13.0268L17.5336 16.473C17.8265 16.7659 17.8265 17.2408 17.5336 17.5337C17.2407 17.8266 16.7658 17.8266 16.4729 17.5337L13.0267 14.0875ZM1.74658 8.05861C1.74658 4.57263 4.57253 1.74667 8.05852 1.74667C11.5445 1.74667 14.3705 4.57263 14.3705 8.05861C14.3705 9.79084 13.6727 11.3601 12.5429 12.5006C12.5356 12.5074 12.5284 12.5143 12.5213 12.5214C12.5142 12.5285 12.5073 12.5357 12.5005 12.543C11.36 13.6728 9.79075 14.3706 8.05852 14.3706C4.57253 14.3706 1.74658 11.5446 1.74658 8.05861Z" fill="#484848"/>
</svg>
