<svg width="40" height="40" viewBox="0 0 40 40" fill="#9a9a9a"
    xmlns="http://www.w3.org/2000/svg">
    <path fill-rule="evenodd" clip-rule="evenodd" d="M24.6092 19.9393C25.195 19.3535 26.1447 19.3535 26.7305 19.9393L36.7305 29.9393C38.9723 32.1811 38.9723 35.8188 36.7305 38.0606C34.4887 40.3024 30.851 40.3024 28.6092 38.0606L18.6092 28.0606C18.0234 27.4748 18.0234 26.5251 18.6092 25.9393C19.195 25.3535 20.1447 25.3535 20.7305 25.9393L30.7305 35.9393C31.8007 37.0095 33.539 37.0095 34.6092 35.9393C35.6794 34.8691 35.6794 33.1308 34.6092 32.0606L24.6092 22.0606C24.0234 21.4748 24.0234 20.5251 24.6092 19.9393Z" fill="#9a9a9a"/>
    <path fill-rule="evenodd" clip-rule="evenodd" d="M30.0148 3.89215C27.7648 3.63159 25.4432 4.34795 23.7305 6.06064C21.6477 8.14345 21.039 11.1275 21.8679 13.7878C22.0338 14.32 21.8907 14.9004 21.4965 15.2946L4.73113 32.06C3.63614 33.1563 3.66052 34.9456 4.80394 36.0101C5.85965 36.9943 7.59174 36.9568 8.68118 35.8673L25.3752 19.1733C25.7694 18.7791 26.3498 18.636 26.8821 18.8019C29.5423 19.6308 32.5264 19.0221 34.6092 16.9393C36.3222 15.2263 37.0385 12.9041 36.7775 10.6536L32.7305 14.7006C32.1447 15.2864 31.195 15.2864 30.6092 14.7006L25.9692 10.0606C25.3835 9.47493 25.3834 8.52534 25.969 7.93952L30.0148 3.89215ZM36.8738 9.69365L37.8318 8.69398L36.8386 9.68113C36.8503 9.68551 36.862 9.68968 36.8738 9.69365ZM38.8878 7.62862C39.115 7.85232 39.2824 8.13201 39.3721 8.43791C40.4583 12.0654 39.6197 16.1714 36.7305 19.0606C34.0459 21.7452 30.3117 22.658 26.887 21.9042L10.8025 37.9886C8.63994 40.1512 5.06731 40.357 2.75901 38.2052C0.367152 35.9776 0.319766 32.2314 2.60855 29.9399L18.7657 13.7828C18.0118 10.3581 18.9246 6.6239 21.6092 3.93932C24.4997 1.04881 28.608 0.210826 32.2368 1.29921L32.2533 1.30416C32.511 1.38469 32.7971 1.5333 33.0434 1.78419L33.3605 2.10132C34.1022 2.84304 34.1023 4.04663 33.3607 4.78844L29.151 8.99978L31.6698 11.5187L35.8812 7.30732C36.623 6.56553 37.8267 6.56553 38.5685 7.30732L38.5718 7.31058L38.8878 7.62862Z" fill="#9a9a9a"/>
    <path fill-rule="evenodd" clip-rule="evenodd" d="M4.72997 1.77288C3.82986 1.47294 2.84001 1.70849 2.17118 2.37732L4.72997 1.77288ZM4.72997 1.77288L8.77514 3.12061C10.2078 3.59739 11.1698 4.93841 11.1698 6.44198V11C11.1698 11.8284 10.4983 12.5 9.66984 12.5H5.11184C3.60539 12.5 2.26725 11.5379 1.79074 10.1061L0.442814 6.06032C0.142866 5.16021 0.378352 4.17015 1.04718 3.50132L2.17118 2.37732M3.38649 5.40465L4.63693 9.15785C4.70467 9.36156 4.89458 9.49998 5.11184 9.49998H8.16984V6.44198C8.16984 6.22584 8.03142 6.03481 7.82854 5.96735L4.07451 4.71663L3.38649 5.40465Z" fill="#9a9a9a"/>
    <path fill-rule="evenodd" clip-rule="evenodd" d="M8.61918 9.93932C9.20497 9.35353 10.1547 9.35353 10.7405 9.93932L17.7405 16.9393C18.3263 17.5251 18.3263 18.4748 17.7405 19.0606C17.1547 19.6464 16.205 19.6464 15.6192 19.0606L8.61918 12.0606C8.03339 11.4749 8.03339 10.5251 8.61918 9.93932Z" fill="#9a9a9a"/>
</svg>
