<svg width="38" height="41" viewBox="0 0 38 41" fill="none"
    xmlns="http://www.w3.org/2000/svg">
    <path fill-rule="evenodd" clip-rule="evenodd" d="M11.5 9.5H8C4.96243 9.5 2.5 11.9624 2.5 15V17C2.5 17.8284 3.17157 18.5 4 18.5C4.82843 18.5 5.5 17.8284 5.5 17V15C5.5 13.6193 6.61929 12.5 8 12.5H32C33.3807 12.5 34.5 13.6193 34.5 15V35C34.5 36.3807 33.3807 37.5 32 37.5H26C25.1716 37.5 24.5 38.1716 24.5 39C24.5 39.8284 25.1716 40.5 26 40.5H32C35.0376 40.5 37.5 38.0376 37.5 35V15C37.5 11.9624 35.0376 9.5 32 9.5H28.5V9C28.5 4.30558 24.6944 0.5 20 0.5C15.3056 0.5 11.5 4.30558 11.5 9V9.5ZM14.5 9C14.5 5.96243 16.9624 3.5 20 3.5C23.0376 3.5 25.5 5.96243 25.5 9V9.5H14.5V9Z" fill="#9a9a9a"/>
    <path d="M8 25.5C8.82843 25.5 9.5 26.1716 9.5 27C9.5 28.3807 10.6193 29.5 12 29.5C13.3807 29.5 14.5 28.3807 14.5 27C14.5 26.1716 15.1716 25.5 16 25.5C16.8284 25.5 17.5 26.1716 17.5 27C17.5 30.0376 15.0376 32.5 12 32.5C8.96243 32.5 6.5 30.0376 6.5 27C6.5 26.1716 7.17157 25.5 8 25.5Z" fill="#9a9a9a"/>
    <path fill-rule="evenodd" clip-rule="evenodd" d="M17 40.5C20.5899 40.5 23.5 37.5899 23.5 34V26C23.5 22.4101 20.5899 19.5 17 19.5H7C3.41015 19.5 0.5 22.4101 0.5 26V34C0.5 37.5899 3.41015 40.5 7 40.5H17ZM20.5 34C20.5 35.933 18.933 37.5 17 37.5H7C5.067 37.5 3.5 35.933 3.5 34V26C3.5 24.067 5.067 22.5 7 22.5H17C18.933 22.5 20.5 24.067 20.5 26V34Z" fill="#9a9a9a"/>
</svg>
