<svg width="46" height="40" viewBox="0 0 46 40" fill="none"
    xmlns="http://www.w3.org/2000/svg">
    <path fill-rule="evenodd" clip-rule="evenodd" d="M18.4987 4.99243C18.4987 2.50634 20.5155 0.492432 23 0.492432C25.4844 0.492432 27.5012 2.50634 27.5012 4.99243V13.1682C27.6792 12.8463 27.8799 12.5357 28.1026 12.2388L29.9719 9.74649C29.6739 9.23155 29.5033 8.63365 29.5033 7.99591V5.99341C29.5033 4.06041 31.0703 2.49341 33.0033 2.49341H36.0062C37.9392 2.49341 39.5062 4.06041 39.5062 5.99341V7.99591C39.5062 8.63365 39.3356 9.23156 39.0376 9.7465L40.9069 12.2389C41.8372 13.4793 42.3848 14.96 42.4891 16.4993H44.0087C44.8371 16.4993 45.5087 17.1708 45.5087 17.9993C45.5087 18.8277 44.8371 19.4993 44.0087 19.4993H42.2371L39.7634 31.8678C38.875 36.3099 34.9747 39.5074 30.4446 39.5074H15.5553C11.0252 39.5074 7.12489 36.3099 6.2365 31.8678L3.7628 19.4993H1.99121C1.16278 19.4993 0.491211 18.8277 0.491211 17.9993C0.491211 17.1708 1.16278 16.4993 1.99121 16.4993H3.49246V15.9983C3.49246 12.873 5.69743 10.2627 8.63657 9.63825C9.26106 6.69911 11.8713 4.49414 14.9966 4.49414C16.2861 4.49414 17.4879 4.8695 18.4987 5.5169V4.99243ZM39.4781 16.4993C39.3814 15.6102 39.0475 14.7596 38.5069 14.0389L36.5663 11.4513C36.3839 11.4807 36.1968 11.4959 36.0062 11.4959H33.0033C32.8127 11.4959 32.6256 11.4807 32.4432 11.4513L30.5026 14.0388C29.962 14.7596 29.6281 15.6101 29.5314 16.4993H39.4781ZM27.5012 19.4993H39.1777L36.8217 31.2795C36.2137 34.3193 33.5447 36.5074 30.4446 36.5074H15.5553C12.4553 36.5074 9.78618 34.3192 9.17824 31.2794L6.82221 19.4993H18.4987V23.0024C18.4987 25.4885 20.5155 27.5024 23 27.5024C25.4844 27.5024 27.5012 25.4885 27.5012 23.0024V19.4993ZM24.5012 17.9993L24.5012 4.99243C24.5012 4.16482 23.8292 3.49243 23 3.49243C22.1707 3.49243 21.4987 4.16482 21.4987 4.99243V23.0024C21.4987 23.83 22.1707 24.5024 23 24.5024C23.8292 24.5024 24.5012 23.83 24.5012 23.0024L24.5012 17.9993ZM18.4987 16.4993H6.49246V15.9983C6.49246 14.0642 8.0604 12.4962 9.99454 12.4962C10.823 12.4962 11.4945 11.8247 11.4945 10.9962C11.4945 9.06208 13.0625 7.49414 14.9966 7.49414C16.9308 7.49414 18.4987 9.06208 18.4987 10.9962V16.4993ZM36.264 8.42443L36.2969 8.40276C36.4236 8.31206 36.5062 8.16363 36.5062 7.99591V5.99341C36.5062 5.71727 36.2824 5.49341 36.0062 5.49341H33.0033C32.7272 5.49341 32.5033 5.71727 32.5033 5.99341V7.99591C32.5033 8.16362 32.5859 8.31205 32.7126 8.40276L32.7455 8.42443C32.8208 8.46981 32.909 8.49591 33.0033 8.49591H36.0062C36.1005 8.49591 36.1887 8.4698 36.264 8.42443Z" fill="#9a9a9a"/>
</svg>
