<svg width="48" height="39" viewBox="0 0 48 39" fill="none"
    xmlns="http://www.w3.org/2000/svg">
    <path d="M47.4002 13.6C47.4002 12 46.4002 10.8 45.2002 9.99998C44.0002 9.19998 42.4002 8.99998 41.0002 9.59998L40.8002 9.79998C37.4002 4.19998 31.4002 0.599976 24.6002 0.599976C14.2002 0.599976 5.60018 9.19998 5.60018 19.6C5.60018 19.8 5.60018 20 5.60018 20C1.60018 23.2 -0.199816 26.6 0.800184 29.2C1.60018 31.4 4.20018 32.6 7.80018 32.6H8.00018C8.80018 32.6 9.60018 32.6 10.4002 32.4C13.8002 36.2 18.8002 38.6 24.4002 38.6C34.8002 38.6 43.4002 30 43.4002 19.6C43.4002 19.4 43.4002 19.2 43.4002 19L44.6002 18.6C46.6002 17.6 47.6002 15.6 47.4002 13.6ZM7.80018 29.6C5.60018 29.6 3.80018 29 3.40018 28C3.00018 27.2 3.80018 25.6 5.80018 23.6C6.20018 25.8 7.00018 27.8 8.20018 29.6C8.20018 29.4 8.00018 29.6 7.80018 29.6ZM24.4002 35.6C20.4002 35.6 16.8002 34.2 14.0002 31.8C15.6002 31.4 17.2002 31 18.8002 30.2C19.6002 29.8 20.0002 29 19.6002 28.2C19.2002 27.4 18.4002 27 17.6002 27.4C15.6002 28.2 13.6002 28.8 11.6002 29.2C9.60018 26.6 8.40018 23.2 8.40018 19.6C8.40018 10.8 15.6002 3.59998 24.4002 3.59998C29.8002 3.59998 34.8002 6.39998 37.8002 10.8L33.4002 12.6L26.4002 6.99998C26.0002 6.79998 25.6002 6.59998 25.2002 6.79998L20.4002 7.79998C19.8002 7.79998 19.4002 8.19998 19.2002 8.79998C19.0002 9.19998 19.2002 9.79998 19.4002 10.2L24.0002 16.2L21.0002 17.6L19.4002 16.4C18.6002 15.8 17.6002 15.6 16.6002 16L14.0002 16.8C13.6002 17 13.2002 17.4 13.0002 17.8C12.8002 18.2 13.0002 18.8 13.2002 19.2L17.0002 24C17.6002 24.8 18.6002 25.2 19.4002 25.2C19.4002 25.2 19.4002 25.2 19.6002 25.2L28.2002 25C28.8002 25 29.4002 24.8 30.0002 24.6L40.6002 20C40.2002 28.6 33.0002 35.6 24.4002 35.6ZM43.4002 15.6L28.6002 22C28.4002 22 28.2002 22 28.0002 22L19.4002 22.2L17.0002 19L17.8002 18.8L20.2002 20.4C20.6002 20.6 21.2002 20.8 21.6002 20.6L27.2002 18.2C27.6002 18 28.0002 17.6 28.0002 17.2C28.2002 16.8 28.0002 16.2 27.8002 16L23.4002 10.4L25.2002 9.99998L32.4002 15.6C32.8002 16 33.4002 16 33.8002 15.8L40.4002 13.2C40.6002 13.2 40.6002 13.2 40.8002 13.2C40.8002 13.2 40.8002 13.2 41.0002 13.2L42.0002 12.4C42.6002 12.2 43.2002 12.2 43.6002 12.6C44.0002 12.8 44.4002 13.4 44.4002 14C44.6002 14.6 44.2002 15.4 43.4002 15.6Z" fill="#9a9a9a"/>
</svg>
